<svg width="16" height="17" viewBox="0 0 16 17" fill="none" xmlns="http://www.w3.org/2000/svg">
<path d="M2.38619 0.892699L8.00033 6.50684L13.5854 0.921788C13.7088 0.790477 13.8574 0.685433 14.0223 0.612955C14.1873 0.540477 14.3652 0.502057 14.5453 0.5C14.9311 0.5 15.301 0.653235 15.5738 0.925996C15.8465 1.19876 15.9998 1.5687 15.9998 1.95444C16.0032 2.13276 15.9701 2.30989 15.9025 2.47496C15.835 2.64003 15.7345 2.78956 15.6071 2.91437L9.94928 8.49943L15.6071 14.1572C15.8468 14.3917 15.9873 14.7093 15.9998 15.0444C15.9998 15.4302 15.8465 15.8001 15.5738 16.0729C15.301 16.3456 14.9311 16.4989 14.5453 16.4989C14.36 16.5065 14.175 16.4756 14.0023 16.408C13.8295 16.3404 13.6727 16.2376 13.5418 16.1062L8.00033 10.492L2.40074 16.0916C2.27784 16.2185 2.13103 16.3199 1.96877 16.3898C1.80651 16.4597 1.63201 16.4967 1.45535 16.4989C1.06961 16.4989 0.699664 16.3456 0.426904 16.0729C0.154143 15.8001 0.000908034 15.4302 0.000908034 15.0444C-0.00248299 14.8661 0.0306011 14.689 0.0981301 14.5239C0.165659 14.3588 0.266208 14.2093 0.393607 14.0845L6.05138 8.49943L0.393607 2.84165C0.153893 2.60713 0.0133284 2.28956 0.000908034 1.95444C0.000908034 1.5687 0.154143 1.19876 0.426904 0.925996C0.699664 0.653235 1.06961 0.5 1.45535 0.5C1.80441 0.504363 2.13894 0.645444 2.38619 0.892699Z" fill="white"/>
</svg>
