<svg width="20" height="24" viewBox="0 0 20 24" fill="none" xmlns="http://www.w3.org/2000/svg">
<path d="M9.92867 0C7.4289 0.00283581 5.03233 0.997121 3.26472 2.76472C1.49712 4.53233 0.502836 6.9289 0.5 9.42867C0.5 17.4966 9.07152 23.5899 9.43688 23.8449C9.581 23.9458 9.7527 24 9.92867 24C10.1046 24 10.2763 23.9458 10.4205 23.8449C10.7858 23.5899 19.3573 17.4966 19.3573 9.42867C19.3545 6.9289 18.3602 4.53233 16.5926 2.76472C14.825 0.997121 12.4284 0.00283581 9.92867 0ZM9.92867 6.00006C10.6068 6.00006 11.2697 6.20114 11.8335 6.57788C12.3973 6.95462 12.8368 7.4901 13.0963 8.1166C13.3558 8.74309 13.4237 9.43247 13.2914 10.0976C13.1591 10.7626 12.8326 11.3736 12.3531 11.8531C11.8736 12.3326 11.2626 12.6591 10.5976 12.7914C9.93247 12.9237 9.24309 12.8558 8.6166 12.5963C7.9901 12.3368 7.45462 11.8973 7.07788 11.3335C6.70114 10.7697 6.50006 10.1068 6.50006 9.42867C6.50006 8.51934 6.86129 7.64726 7.50428 7.00428C8.14726 6.36129 9.01934 6.00006 9.92867 6.00006Z" fill="white"/>
</svg>
