<svg width="25" height="24" viewBox="0 0 25 24" fill="none" xmlns="http://www.w3.org/2000/svg">
<path fill-rule="evenodd" clip-rule="evenodd" d="M12.5 0C5.8724 0 0.5 5.3724 0.5 12C0.5 14.268 1.13 16.392 2.2256 18.2016L1.1552 21.84C1.09374 22.0489 1.0897 22.2705 1.14349 22.4815C1.19729 22.6925 1.30694 22.8851 1.46091 23.0391C1.61489 23.1931 1.8075 23.3027 2.0185 23.3565C2.2295 23.4103 2.4511 23.4062 2.66 23.3448L6.2984 22.2744C8.16889 23.4059 10.3139 24.0028 12.5 24C19.1276 24 24.5 18.6276 24.5 12C24.5 5.3724 19.1276 0 12.5 0ZM9.7856 14.7156C12.2132 17.142 14.5304 17.4624 15.3488 17.4924C16.5932 17.538 17.8052 16.5876 18.2768 15.4848C18.3358 15.3475 18.3572 15.1969 18.3386 15.0486C18.32 14.9004 18.2623 14.7597 18.1712 14.6412C17.5136 13.8012 16.6244 13.1976 15.7556 12.5976C15.5743 12.4719 15.3513 12.4214 15.1335 12.4567C14.9158 12.4921 14.7202 12.6106 14.588 12.7872L13.868 13.8852C13.83 13.944 13.771 13.9861 13.703 14.0031C13.635 14.02 13.5632 14.0105 13.502 13.9764C13.0136 13.6968 12.302 13.2216 11.7908 12.7104C11.2796 12.1992 10.8332 11.52 10.5824 11.0628C10.5521 11.0045 10.5435 10.9374 10.5582 10.8734C10.573 10.8094 10.61 10.7527 10.6628 10.7136L11.7716 9.8904C11.9303 9.75311 12.0328 9.56209 12.0593 9.35394C12.0859 9.14579 12.0347 8.93515 11.9156 8.7624C11.378 7.9752 10.7516 6.9744 9.8432 6.3108C9.72572 6.22639 9.58842 6.17375 9.44462 6.15798C9.30082 6.14221 9.15538 6.16385 9.0224 6.2208C7.9184 6.6936 6.9632 7.9056 7.0088 9.1524C7.0388 9.9708 7.3592 12.288 9.7856 14.7156Z" fill="white"/>
</svg>
