<svg width="25" height="24" viewBox="0 0 25 24" fill="none" xmlns="http://www.w3.org/2000/svg">
<path d="M22.4539 0.211879C22.4539 0.211879 24.6741 -0.826978 24.489 1.69596C24.4274 2.73483 23.8724 6.37083 23.4406 10.3037L21.9605 21.9537C21.9605 21.9537 21.8372 23.6604 20.7271 23.9573C19.617 24.254 17.9519 22.9184 17.6435 22.6216C17.3968 22.399 13.0182 19.0598 11.4763 17.4273C11.0446 16.982 10.5513 16.0916 11.538 15.0527L18.0136 7.63234C18.7536 6.74187 19.4937 4.66416 16.4101 7.1871L7.77606 14.2365C7.77606 14.2365 6.78932 14.9785 4.9392 14.3107L0.930527 12.8266C0.930527 12.8266 -0.549595 11.7136 1.97894 10.6004C8.14612 7.11284 15.7317 3.55104 22.4539 0.211879Z" fill="white"/>
</svg>
