<svg width="14" height="15" viewBox="0 0 14 15" fill="none" xmlns="http://www.w3.org/2000/svg">
<path d="M8.62477 7.49898V14.0648C8.65727 14.3147 8.57603 14.5814 8.38918 14.7563C8.31402 14.8336 8.22475 14.8949 8.12648 14.9367C8.0282 14.9785 7.92285 15 7.81645 15C7.71005 15 7.6047 14.9785 7.50642 14.9367C7.40814 14.8949 7.31887 14.8336 7.24372 14.7563L5.61082 13.0816C5.52226 12.9927 5.45493 12.884 5.41406 12.7641C5.3732 12.6441 5.3599 12.5161 5.37522 12.39V7.49898H5.35085L0.671501 1.34982C0.539576 1.17612 0.480049 0.955919 0.505927 0.737342C0.531805 0.518764 0.640984 0.319579 0.809607 0.183308C0.963961 0.0666576 1.13456 0 1.31329 0H12.6867C12.8654 0 13.036 0.0666576 13.1904 0.183308C13.359 0.319579 13.4682 0.518764 13.4941 0.737342C13.5199 0.955919 13.4604 1.17612 13.3285 1.34982L8.64915 7.49898H8.62477Z" fill="white"/>
</svg>
