<svg width="22" height="22" viewBox="0 0 22 22" fill="none" xmlns="http://www.w3.org/2000/svg">
<path fill-rule="evenodd" clip-rule="evenodd" d="M11 0C4.9247 0 0 4.9247 0 11C0 13.079 0.5775 15.026 1.5818 16.6848L0.6006 20.02C0.544263 20.2115 0.540556 20.4146 0.589869 20.608C0.639182 20.8015 0.739692 20.978 0.880835 21.1192C1.02198 21.2603 1.19854 21.3608 1.39196 21.4101C1.58538 21.4594 1.78851 21.4557 1.98 21.3994L5.3152 20.4182C7.02981 21.4554 8.99607 22.0025 11 22C17.0753 22 22 17.0753 22 11C22 4.9247 17.0753 0 11 0ZM8.5118 13.4893C10.7371 15.7135 12.8612 16.0072 13.6114 16.0347C14.7521 16.0765 15.8631 15.2053 16.2954 14.1944C16.3495 14.0685 16.3691 13.9305 16.3521 13.7946C16.335 13.6587 16.2821 13.5297 16.1986 13.4211C15.5958 12.6511 14.7807 12.0978 13.9843 11.5478C13.8181 11.4326 13.6137 11.3863 13.4141 11.4187C13.2145 11.4511 13.0352 11.5597 12.914 11.7216L12.254 12.7281C12.2191 12.782 12.1651 12.8206 12.1028 12.8361C12.0405 12.8517 11.9746 12.8429 11.9185 12.8117C11.4708 12.5554 10.8185 12.1198 10.3499 11.6512C9.8813 11.1826 9.4721 10.56 9.2422 10.1409C9.21439 10.0875 9.20653 10.0259 9.22004 9.96726C9.23355 9.90859 9.26754 9.85666 9.3159 9.8208L10.3323 9.0662C10.4778 8.94035 10.5717 8.76525 10.596 8.57444C10.6204 8.38364 10.5735 8.19055 10.4643 8.0322C9.9715 7.3106 9.3973 6.3932 8.5646 5.7849C8.45691 5.70752 8.33106 5.65927 8.19924 5.64482C8.06742 5.63036 7.9341 5.6502 7.8122 5.7024C6.8002 6.1358 5.9246 7.2468 5.9664 8.3897C5.9939 9.1399 6.2876 11.264 8.5118 13.4893Z" fill="white"/>
</svg>
