<svg width="20" height="21" viewBox="0 0 20 21" fill="none" xmlns="http://www.w3.org/2000/svg">
<path d="M19.6935 18.4925L15.1596 13.9586C16.2512 12.5054 16.8404 10.7367 16.8384 8.9192C16.8384 4.27688 13.0615 0.5 8.4192 0.5C3.77688 0.5 0 4.27688 0 8.9192C0 13.5615 3.77688 17.3384 8.4192 17.3384C10.2367 17.3404 12.0054 16.7512 13.4586 15.6596L17.9925 20.1935C18.222 20.3986 18.5213 20.5081 18.829 20.4995C19.1367 20.4909 19.4295 20.3648 19.6472 20.1472C19.8648 19.9295 19.9909 19.6367 19.9995 19.329C20.0081 19.0213 19.8986 18.722 19.6935 18.4925ZM2.40549 8.9192C2.40549 7.7298 2.75818 6.56711 3.41898 5.57816C4.07977 4.58921 5.01899 3.81842 6.11785 3.36325C7.21671 2.90809 8.42587 2.789 9.59242 3.02104C10.759 3.25308 11.8305 3.82583 12.6715 4.66686C13.5126 5.50789 14.0853 6.57944 14.3174 7.74598C14.5494 8.91253 14.4303 10.1217 13.9751 11.2205C13.52 12.3194 12.7492 13.2586 11.7602 13.9194C10.7713 14.5802 9.6086 14.9329 8.4192 14.9329C6.82485 14.931 5.29635 14.2968 4.16897 13.1694C3.0416 12.0421 2.4074 10.5135 2.40549 8.9192Z" fill="#F5EAEA" fill-opacity="0.3"/>
</svg>
